<svg data-type="monochrome" xmlns="http://www.w3.org/2000/svg" viewBox="0 0 24 24" width="24" height="24" fill="none" xmlns:xlink="http://www.w3.org/1999/xlink"><path d="M4 6.5H11C11.5523 6.5 12 6.94772 12 7.5C12 8.05228 11.5523 8.5 11 8.5H4C3.44772 8.5 3 8.05228 3 7.5C3 6.94772 3.44772 6.5 4 6.5ZM13 15.5H20C20.5523 15.5 21 15.9477 21 16.5C21 17.0523 20.5523 17.5 20 17.5H13C12.4477 17.5 12 17.0523 12 16.5C12 15.9477 12.4477 15.5 13 15.5Z" fill="#222222"></path><path fill-rule="evenodd" clip-rule="evenodd" d="M16.5 3A4.5 4.5 0 1 1 16.5 12A4.5 4.5 0 0 1 16.5 3ZM16.5 5A2.5 2.5 0 1 0 16.5 10A2.5 2.5 0 0 0 16.5 5ZM7.5 12A4.5 4.5 0 1 1 7.5 21A4.5 4.5 0 0 1 7.5 12ZM7.5 14A2.5 2.5 0 1 0 7.5 19A2.5 2.5 0 0 0 7.5 14Z" fill="#222222"></path></svg>
