<svg xmlns="http://www.w3.org/2000/svg" width="40" height="40" viewBox="0 0 40 40" fill="none">
  <path d="M20 3C29.3826 3 37 10.6174 37 20C37 29.3826 29.3826 37 20 37C10.6174 37 3 29.3826 3 20C3 10.6174 10.6174 3 20 3ZM7.59708 27.8469C8.92037 29.9392 10.7516 31.6627 12.9202 32.8569C15.0888 34.0511 17.5243 34.6771 20 34.6767C25.2148 34.6767 29.7991 31.951 32.4029 27.8469L20 23.1209L7.59708 27.8469ZM22.703 18.4388L32.9979 26.8184C34.1039 24.716 34.6801 22.3755 34.6767 20C34.6767 12.0992 28.4192 5.64775 20.595 5.33467L22.703 18.4388ZM19.405 5.33467C11.5807 5.64775 5.32333 12.0992 5.32333 20C5.32333 22.4607 5.92967 24.7798 7.00208 26.8184L17.297 18.4388L19.405 5.33467Z" fill="#222222"/>
</svg>
