<svg xmlns:xlink="http://www.w3.org/1999/xlink" xmlns="http://www.w3.org/2000/svg" viewBox="0 0 24 24" width="32" height="32"><path fill="currentColor" fill-rule="evenodd" d="M19 3c2.206 0 4 1.794 4 4v1a.998.998 0 01-.602.916c.375.609.602 1.318.602 2.084v7c0 1.103-.897 2-2 2h-1.183a2.996 2.996 0 01-2.816 2 2.996 2.996 0 01-2.816-2H9.816A2.996 2.996 0 017 22a2.996 2.996 0 01-2.816-2H3c-1.103 0-2-.897-2-2V5c0-1.103.897-2 2-2zM7 18a1.001 1.001 0 000 2 1.001 1.001 0 000-2zm10 0a1.001 1.001 0 000 2 1.001 1.001 0 000-2zM10 5H3v13h1.184A2.996 2.996 0 017 16c1.302 0 2.402.839 2.816 2h4.368A2.996 2.996 0 0117 16c1.302 0 2.402.839 2.816 2H21v-4h-6a1 1 0 01-1-1V8a1 1 0 011-1h6c0-1.103-.897-2-2-2h-7v8a1 1 0 11-2 0V5zm-2 6a1 1 0 011 1v1a1 1 0 11-2 0v-1a1 1 0 011-1zm11-2h-3v3h5v-1c0-1.103-.897-2-2-2z"/></svg>
